<svg width="21" height="21" viewBox="0 0 21 21" fill="none" xmlns="http://www.w3.org/2000/svg">
<path d="M7.33643 8.81924C7.33643 8.63807 7.4084 8.46432 7.5365 8.33621C7.66461 8.2081 7.83836 8.13613 8.01953 8.13613H12.1182C12.2993 8.13613 12.4731 8.2081 12.6012 8.33621C12.7293 8.46432 12.8013 8.63807 12.8013 8.81924C12.8013 9.00041 12.7293 9.17416 12.6012 9.30227C12.4731 9.43038 12.2993 9.50235 12.1182 9.50235H8.01953C7.83836 9.50235 7.66461 9.43038 7.5365 9.30227C7.4084 9.17416 7.33643 9.00041 7.33643 8.81924ZM8.01953 10.8686C7.83836 10.8686 7.66461 10.9405 7.5365 11.0686C7.4084 11.1967 7.33643 11.3705 7.33643 11.5517C7.33643 11.7328 7.4084 11.9066 7.5365 12.0347C7.66461 12.1628 7.83836 12.2348 8.01953 12.2348H10.752C10.9331 12.2348 11.1069 12.1628 11.235 12.0347C11.3631 11.9066 11.4351 11.7328 11.4351 11.5517C11.4351 11.3705 11.3631 11.1967 11.235 11.0686C11.1069 10.9405 10.9331 10.8686 10.752 10.8686H8.01953ZM1.87157 10.1855C1.87191 8.38075 2.46782 6.6266 3.56683 5.19512C4.66585 3.76364 6.20654 2.73485 7.94991 2.26835C9.69328 1.80185 11.5419 1.9237 13.2089 2.61502C14.876 3.30633 16.2683 4.52846 17.1699 6.09181C18.0715 7.65517 18.432 9.47236 18.1954 11.2615C17.9589 13.0506 17.1385 14.7117 15.8616 15.987C14.5847 17.2623 12.9226 18.0806 11.1331 18.3149C9.34371 18.5493 7.52697 18.1865 5.96475 17.2829L2.77053 18.3486C2.65252 18.388 2.52599 18.3944 2.4046 18.3672C2.28321 18.3399 2.17156 18.28 2.08171 18.194C1.99185 18.1079 1.92721 17.999 1.89475 17.8789C1.86229 17.7588 1.86325 17.6321 1.89752 17.5125L2.87027 14.1092C2.21314 12.9059 1.86968 11.5565 1.87157 10.1855ZM10.0689 3.35438C8.86274 3.3543 7.6781 3.67357 6.63536 4.27973C5.59262 4.88588 4.72896 5.75731 4.13217 6.80544C3.53539 7.85357 3.22675 9.04102 3.23763 10.2471C3.24851 11.4532 3.57853 12.6348 4.19413 13.672C4.24149 13.7522 4.27199 13.8411 4.28373 13.9334C4.29548 14.0258 4.28823 14.1195 4.26244 14.209L3.56704 16.6408L5.83222 15.8867C5.92842 15.8546 6.03057 15.8443 6.13124 15.8566C6.23191 15.8689 6.32858 15.9034 6.41423 15.9577C7.30947 16.5243 8.32422 16.8748 9.37827 16.9817C10.4323 17.0886 11.4968 16.9488 12.4875 16.5734C13.4782 16.198 14.3681 15.5974 15.0867 14.8189C15.8053 14.0404 16.333 13.1055 16.6281 12.0879C16.9231 11.0704 16.9775 9.99815 16.7868 8.956C16.5961 7.91384 16.1656 6.93033 15.5294 6.08318C14.8932 5.23604 14.0686 4.5485 13.1209 4.0749C12.1732 3.6013 11.1283 3.35463 10.0689 3.35438Z" fill="white"/>
</svg>
