<svg width="21" height="20" viewBox="0 0 21 20" fill="none" xmlns="http://www.w3.org/2000/svg">
<path d="M16.0727 1.57764H4.15878C2.79784 1.57764 1.69043 2.68505 1.69043 4.04598V15.9599C1.69043 17.3208 2.79784 18.4282 4.15878 18.4282H16.0727C17.4336 18.4282 18.541 17.3208 18.541 15.9599V4.04598C18.541 2.68505 17.4336 1.57764 16.0727 1.57764ZM10.1486 14.413C7.69867 14.413 5.70561 12.42 5.70561 9.97002C5.70561 7.52005 7.69867 5.52699 10.1486 5.52699C12.5986 5.52699 14.5917 7.52005 14.5917 9.97002C14.5917 12.42 12.5986 14.413 10.1486 14.413ZM15.0853 6.51433C14.2687 6.51433 13.6043 5.84994 13.6043 5.03332C13.6043 4.21671 14.2687 3.55231 15.0853 3.55231C15.9019 3.55231 16.5663 4.21671 16.5663 5.03332C16.5663 5.84994 15.9019 6.51433 15.0853 6.51433Z" fill="white"/>
<path d="M15.0855 4.54004C14.813 4.54004 14.5918 4.76129 14.5918 5.03371C14.5918 5.30613 14.813 5.52738 15.0855 5.52738C15.3579 5.52738 15.5791 5.30613 15.5791 5.03371C15.5791 4.76129 15.3579 4.54004 15.0855 4.54004Z" fill="white"/>
<path d="M10.1486 6.51465C8.2433 6.51465 6.69287 8.06508 6.69287 9.97034C6.69287 11.8756 8.2433 13.426 10.1486 13.426C12.0538 13.426 13.6042 11.8756 13.6042 9.97034C13.6042 8.06508 12.0538 6.51465 10.1486 6.51465Z" fill="white"/>
</svg>
