<svg width="21" height="21" viewBox="0 0 21 21" fill="none" xmlns="http://www.w3.org/2000/svg">
<path fill-rule="evenodd" clip-rule="evenodd" d="M10.6074 1.62646C10.377 1.62646 10.1487 1.63512 9.92264 1.65213C5.4366 1.98963 1.86807 5.61575 1.62108 10.1265C1.61201 10.292 1.60742 10.4587 1.60742 10.6265C1.60742 10.7942 1.61201 10.9609 1.62108 11.1265C1.86807 15.6372 5.4366 19.2633 9.92264 19.6008C10.1487 19.6178 10.377 19.6265 10.6074 19.6265C10.8378 19.6265 11.0662 19.6178 11.2922 19.6008C15.7782 19.2633 19.3468 15.6372 19.5938 11.1265C19.6028 10.9609 19.6074 10.7942 19.6074 10.6265C19.6074 10.4587 19.6028 10.292 19.5938 10.1265C19.3468 5.61575 15.7782 1.98963 11.2922 1.65213C11.0662 1.63512 10.8378 1.62646 10.6074 1.62646ZM10.7785 2.62826C11.03 2.97803 11.3445 3.46868 11.6602 4.10007C12.3379 5.45539 13.0229 7.4629 13.1002 10.1265H8.11464C8.1919 7.4629 8.87698 5.45539 9.55464 4.10007C9.87033 3.46868 10.1848 2.97803 10.4364 2.62826C10.4933 2.62707 10.5503 2.62646 10.6074 2.62646C10.6646 2.62646 10.7216 2.62707 10.7785 2.62826ZM8.11464 11.1265H13.1002C13.0229 13.79 12.3379 15.7975 11.6602 17.1529C11.3445 17.7843 11.03 18.2749 10.7785 18.6247C10.7216 18.6259 10.6646 18.6265 10.6074 18.6265C10.5503 18.6265 10.4933 18.6259 10.4364 18.6247C10.1848 18.2749 9.87033 17.7843 9.55464 17.1529C8.87698 15.7975 8.1919 13.79 8.11464 11.1265ZM7.11424 10.1265C7.19199 7.28772 7.92236 5.12855 8.66021 3.65286C8.82682 3.31963 8.99371 3.02144 9.15341 2.75828C5.5888 3.41279 2.85074 6.43004 2.62279 10.1265H7.11424ZM2.62279 11.1265H7.11424C7.19199 13.9652 7.92236 16.1244 8.66021 17.6001C8.82682 17.9333 8.99371 18.2315 9.15341 18.4947C5.5888 17.8401 2.85074 14.8229 2.62279 11.1265ZM12.0614 18.4947C15.626 17.8401 18.3641 14.8229 18.5921 11.1265H14.1006C14.0229 13.9652 13.2925 16.1244 12.5546 17.6001C12.388 17.9333 12.2211 18.2315 12.0614 18.4947ZM14.1006 10.1265C14.0229 7.28772 13.2925 5.12855 12.5546 3.65286C12.388 3.31963 12.2211 3.02144 12.0614 2.75828C15.626 3.41279 18.3641 6.43004 18.5921 10.1265H14.1006Z" fill="white"/>
</svg>
