<svg width="61" height="15" viewBox="0 0 61 15" fill="none" xmlns="http://www.w3.org/2000/svg">
<g clip-path="url(#clip0_1911_7525)">
<path d="M5.48504 12.8134C8.42128 12.8134 10.4662 10.5576 10.4662 7.61982C10.4662 4.68205 8.42128 2.42627 5.48504 2.42627C2.54879 2.42627 0.503906 4.68205 0.503906 7.61982C0.503906 10.5576 2.54879 12.8134 5.48504 12.8134Z" fill="#20CC6D"/>
<path d="M20.428 6.54358C20.428 4.2231 18.9345 2.42627 16.7609 2.42627C15.7199 2.42627 14.8551 2.80334 14.2428 3.45981V3.13921C14.2428 2.78808 14.0438 2.60691 13.6917 2.60691H12.3753C12.0232 2.60691 11.8242 2.78808 11.8242 3.13921V13.6174C11.8242 13.9685 12.0232 14.1682 12.3753 14.1682H13.6917C14.0438 14.1682 14.2428 13.9685 14.2428 13.6174V9.62735C14.8551 10.2838 15.7199 10.7359 16.7609 10.7359C18.9345 10.7359 20.428 8.86406 20.428 6.54358ZM18.0467 6.54358C18.0467 7.67329 17.2124 8.52819 16.1486 8.52819C15.0847 8.52819 14.2428 7.67329 14.2428 6.54358C14.2428 5.4215 15.0847 4.55897 16.1486 4.55897C17.2124 4.55897 18.0467 5.4215 18.0467 6.54358Z" fill="black"/>
<path d="M20.8789 6.54358C20.8789 8.86406 22.4099 10.7359 24.5911 10.7359C25.6322 10.7359 26.4894 10.2838 27.1093 9.62735V9.94795C27.1093 10.2991 27.3083 10.5553 27.6604 10.5553H28.9317C29.2838 10.5553 29.4828 10.2991 29.4828 9.94795V3.13921C29.4828 2.78808 29.2838 2.60691 28.9317 2.60691H27.6604C27.3083 2.60691 27.1093 2.78808 27.1093 3.13921V3.45981C26.4894 2.80334 25.6322 2.42627 24.5911 2.42627C22.4099 2.42627 20.8789 4.2231 20.8789 6.54358ZM23.3053 6.54358C23.3053 5.4215 24.1319 4.55897 25.1959 4.55897C26.2675 4.55897 27.1093 5.4215 27.1093 6.54358C27.1093 7.67329 26.2675 8.52819 25.1959 8.52819C24.1319 8.52819 23.3053 7.67329 23.3053 6.54358Z" fill="black"/>
<path d="M31.8446 14.1682H33.2681C33.5819 14.1682 33.7886 14.1682 33.8957 13.7243L37.5892 3.22318C37.6209 3.13397 37.6356 3.06796 37.6356 2.97976C37.6356 2.73528 37.4764 2.60693 37.1638 2.60693H35.7555C35.4342 2.60693 35.2275 2.7423 35.1355 3.04762L33.7886 7.38324L32.4645 3.04762C32.3726 2.7423 32.1659 2.60693 31.8446 2.60693H30.4363C30.1198 2.60693 29.9375 2.73871 29.9375 2.98846C29.9375 3.06796 29.9543 3.13751 29.9846 3.22318L32.5945 10.5553L31.416 13.5258C31.2629 13.9151 31.4312 14.1682 31.8446 14.1682Z" fill="black"/>
<path d="M42.7845 2.42627C41.8813 2.42627 41.0785 2.77281 40.5428 3.42162V3.13921C40.5428 2.78808 40.3437 2.60691 39.9917 2.60691H38.6368C38.2847 2.60691 38.0859 2.78808 38.0859 3.13921V9.94795C38.0859 10.2991 38.2847 10.5553 38.6368 10.5553H39.9917C40.3437 10.5553 40.5428 10.2991 40.5428 9.94795V6.22298C40.5428 5.13909 41.2537 4.55897 42.0498 4.55897C42.7616 4.55897 43.3279 5.21541 43.3279 5.9253V9.94795C43.3279 10.2991 43.5269 10.5553 43.879 10.5553H45.2336C45.5857 10.5553 45.7841 10.2991 45.7841 9.94795V5.53601C45.7841 3.6659 44.522 2.42627 42.7845 2.42627Z" fill="black"/>
<path d="M58.5409 7.63514V4.71166H59.7117C60.0635 4.71166 60.2777 4.5132 60.2777 4.16207V3.13924C60.2777 2.78811 60.0635 2.60695 59.7117 2.60695H58.5409V0.676153C58.5409 0.366942 58.36 0.170969 58.0627 0.168242C58.0249 0.167895 57.985 0.170678 57.9436 0.176712L56.5736 0.370828C56.2369 0.424259 56.0684 0.622721 56.0684 0.958578V2.60695H55.4324C55.0804 2.60695 54.8438 2.78811 54.8438 3.13924V4.16207C54.8438 4.5132 55.0804 4.71166 55.4324 4.71166H56.0684V7.88705C56.0684 9.65791 57.1093 10.736 58.8008 10.736C59.214 10.736 59.612 10.6698 59.9487 10.5553C60.2397 10.4561 60.2777 10.177 60.2777 9.87166V9.08545C60.2777 8.71905 60.1554 8.54349 59.7882 8.55875H59.5509C58.8237 8.55875 58.5409 8.2687 58.5409 7.63514Z" fill="black"/>
<path d="M48.7479 7.22294H54.2239C54.5531 7.22294 54.7841 7.06264 54.8147 6.73441C54.8301 6.62756 54.8421 6.51305 54.8421 6.41383C54.8421 4.1926 53.057 2.42627 50.6307 2.42627C48.1585 2.42627 46.2383 4.22312 46.2383 6.54358C46.2383 8.86406 48.1128 10.7359 50.8526 10.7359C52.2609 10.7359 53.3473 10.1693 54.1585 9.41365C54.4187 9.16939 54.4035 8.89459 54.1737 8.63507L53.8447 8.26867C53.6151 8.00915 53.3624 8.00152 53.0717 8.19998C52.4593 8.62743 51.7329 8.83353 50.8834 8.83353C49.7047 8.83353 48.924 8.22288 48.7479 7.22294ZM50.6002 4.25365C51.511 4.25365 52.1762 4.80324 52.3676 5.67341H48.7861C49.0234 4.78798 49.7047 4.25365 50.6002 4.25365Z" fill="black"/>
</g>
<defs>
<clipPath id="clip0_1911_7525">
<rect width="60" height="14" fill="white" transform="translate(0.351562 0.168213)"/>
</clipPath>
</defs>
</svg>
