<svg width="21" height="21" viewBox="0 0 21 21" fill="none" xmlns="http://www.w3.org/2000/svg">
<path d="M15.4219 18.6062C14.7274 18.6062 14.1372 18.3631 13.651 17.877C13.1649 17.3909 12.9219 16.8006 12.9219 16.1062C12.9219 16.009 12.9288 15.9081 12.9427 15.8037C12.9566 15.6992 12.9774 15.6056 13.0052 15.5228L7.13021 12.1062C6.8941 12.3145 6.63021 12.4778 6.33854 12.5962C6.04687 12.7145 5.74132 12.7734 5.42188 12.7728C4.72743 12.7728 4.13715 12.5298 3.65104 12.0437C3.16493 11.5576 2.92188 10.9673 2.92188 10.2728C2.92188 9.5784 3.16493 8.98813 3.65104 8.50201C4.13715 8.0159 4.72743 7.77285 5.42188 7.77285C5.74132 7.77285 6.04687 7.83201 6.33854 7.95035C6.63021 8.06868 6.8941 8.23174 7.13021 8.43951L13.0052 5.02285C12.9774 4.93951 12.9566 4.8459 12.9427 4.74201C12.9288 4.63813 12.9219 4.53729 12.9219 4.43951C12.9219 3.74507 13.1649 3.15479 13.651 2.66868C14.1372 2.18257 14.7274 1.93951 15.4219 1.93951C16.1163 1.93951 16.7066 2.18257 17.1927 2.66868C17.6788 3.15479 17.9219 3.74507 17.9219 4.43951C17.9219 5.13396 17.6788 5.72424 17.1927 6.21035C16.7066 6.69646 16.1163 6.93951 15.4219 6.93951C15.1024 6.93951 14.7969 6.88063 14.5052 6.76285C14.2135 6.64507 13.9497 6.48174 13.7135 6.27285L7.83854 9.68951C7.86632 9.77285 7.88715 9.86674 7.90104 9.97118C7.91493 10.0756 7.92188 10.1762 7.92188 10.2728C7.92188 10.3701 7.91493 10.4709 7.90104 10.5753C7.88715 10.6798 7.86632 10.7734 7.83854 10.8562L13.7135 14.2728C13.9497 14.0645 14.2135 13.9015 14.5052 13.7837C14.7969 13.6659 15.1024 13.6067 15.4219 13.6062C16.1163 13.6062 16.7066 13.8492 17.1927 14.3353C17.6788 14.8215 17.9219 15.4117 17.9219 16.1062C17.9219 16.8006 17.6788 17.3909 17.1927 17.877C16.7066 18.3631 16.1163 18.6062 15.4219 18.6062ZM15.4219 5.27285C15.658 5.27285 15.856 5.19313 16.016 5.03368C16.176 4.87424 16.2558 4.67618 16.2552 4.43951C16.2552 4.2034 16.1752 4.00563 16.0152 3.84618C15.8552 3.68674 15.6574 3.60674 15.4219 3.60618C15.1858 3.60618 14.988 3.68618 14.8285 3.84618C14.6691 4.00618 14.5891 4.20396 14.5885 4.43951C14.5885 4.67563 14.6685 4.87368 14.8285 5.03368C14.9885 5.19368 15.1863 5.2734 15.4219 5.27285ZM5.42188 11.1062C5.65799 11.1062 5.85604 11.0262 6.01604 10.8662C6.17604 10.7062 6.25576 10.5084 6.25521 10.2728C6.25521 10.0367 6.17521 9.83896 6.01521 9.67951C5.85521 9.52007 5.65743 9.44007 5.42188 9.43951C5.18576 9.43951 4.98799 9.51951 4.82854 9.67951C4.6691 9.83951 4.5891 10.0373 4.58854 10.2728C4.58854 10.509 4.66854 10.707 4.82854 10.867C4.98854 11.027 5.18632 11.1067 5.42188 11.1062ZM15.4219 16.9395C15.658 16.9395 15.856 16.8595 16.016 16.6995C16.176 16.5395 16.2558 16.3417 16.2552 16.1062C16.2552 15.8701 16.1752 15.6723 16.0152 15.5128C15.8552 15.3534 15.6574 15.2734 15.4219 15.2728C15.1858 15.2728 14.988 15.3528 14.8285 15.5128C14.6691 15.6728 14.5891 15.8706 14.5885 16.1062C14.5885 16.3423 14.6685 16.5403 14.8285 16.7003C14.9885 16.8603 15.1863 16.9401 15.4219 16.9395Z" fill="white"/>
</svg>
