<svg width="50" height="49" viewBox="0 0 50 49" fill="none" xmlns="http://www.w3.org/2000/svg">
<circle cx="24.8359" cy="24.5" r="24.5" fill="white"/>
<g clip-path="url(#clip0_1208_1965)">
<path d="M25.0638 24.673C27.4608 24.673 29.4023 22.7315 29.4023 20.3345C29.4023 17.9374 27.4608 15.9959 25.0638 15.9959C22.6668 15.9959 20.7253 17.9374 20.7253 20.3345C20.7253 22.7315 22.6668 24.673 25.0638 24.673ZM25.0638 26.8423C22.1678 26.8423 16.3867 28.2957 16.3867 31.1808V32.2654C16.3867 32.862 16.8748 33.3501 17.4714 33.3501H32.6562C33.2528 33.3501 33.7409 32.862 33.7409 32.2654V31.1808C33.7409 28.2957 27.9598 26.8423 25.0638 26.8423Z" fill="#637185"/>
</g>
<defs>
<clipPath id="clip0_1208_1965">
<rect width="26.0312" height="26.0312" fill="white" transform="translate(12.0469 11.6573)"/>
</clipPath>
</defs>
</svg>
