<svg width="76" height="30" viewBox="0 0 76 30" fill="none" xmlns="http://www.w3.org/2000/svg">
<g clip-path="url(#clip0_1283_5476)">
<path d="M0.605469 14.3667C0.676605 13.8411 0.739204 13.3155 0.824567 12.7927C1.28946 9.91684 2.63672 7.25591 4.68046 5.17705C6.72421 3.0982 9.3637 1.70388 12.2348 1.18648C16.8245 0.351171 20.8906 1.50469 24.3791 4.57317C26.8949 6.75139 28.5162 9.78076 28.9318 13.0797C29.5293 17.4323 28.3371 21.2935 25.3949 24.5751C23.1186 27.1009 20.2731 28.5527 16.9127 29.0982C16.4802 29.1693 16.042 29.209 15.6038 29.2659H14.1156C14.0087 29.2319 13.8993 29.2063 13.7884 29.1892C12.1108 29.0929 10.468 28.6722 8.95113 27.9504C4.4525 25.7883 1.72657 22.268 0.824567 17.367C0.730668 16.8471 0.676605 16.3186 0.605469 15.7958V14.3667ZM9.35803 9.31225C9.24551 9.31981 9.13344 9.33309 9.02227 9.35203C8.01214 9.60774 7.00201 9.87481 5.98903 10.1163C5.70449 10.1817 5.6362 10.3124 5.6362 10.5851C5.6362 12.3324 5.6362 14.0769 5.65043 15.8214C5.65652 16.3315 5.70698 16.8401 5.80124 17.3414C6.16142 19.3337 7.17283 21.1505 8.67723 22.5077C10.1816 23.8649 12.0942 24.6859 14.1156 24.8421C15.415 24.9644 16.7254 24.8006 17.9545 24.3622C19.1836 23.9239 20.3015 23.2216 21.2292 22.305C22.8562 20.8303 23.8476 18.7834 23.995 16.5942C24.1202 14.5741 24.0519 12.5398 24.0803 10.5112C24.0867 10.4677 24.0845 10.4234 24.0736 10.3808C24.0627 10.3382 24.0435 10.2981 24.0171 10.263C23.9906 10.2278 23.9574 10.1983 23.9194 10.176C23.8814 10.1538 23.8394 10.1393 23.7958 10.1334C23.0503 9.93731 22.3076 9.72138 21.5593 9.53102C21.1837 9.43727 20.7967 9.38328 20.367 9.30089V9.80094C20.367 11.8523 20.367 13.9036 20.367 15.9549C20.3798 17.0781 20.1978 18.1951 19.8292 19.2564C19.2601 20.8077 18.2728 21.9243 16.6367 22.3817C15.8157 22.6134 14.9573 22.6819 14.1099 22.5834C12.4283 22.4044 11.1336 21.66 10.297 20.1457C9.65869 18.9121 9.33794 17.5393 9.36372 16.151C9.33811 14.0201 9.36372 11.8892 9.36372 9.75832L9.35803 9.31225ZM13.2079 9.59637C13.2079 10.7527 13.2079 11.9091 13.2079 13.0655C13.2079 13.3268 13.2734 13.4263 13.5494 13.4234C14.4258 13.4064 15.2993 13.4234 16.1757 13.4234C16.4346 13.4234 16.5314 13.3581 16.5314 13.0797C16.52 10.7575 16.52 8.43433 16.5314 6.11024C16.5314 5.86022 16.4602 5.76646 16.2042 5.7693C15.3202 5.7693 14.4352 5.7693 13.5494 5.7693C13.2648 5.7693 13.2051 5.87443 13.2079 6.13297C13.2164 7.29218 13.2079 8.44854 13.2079 9.6049V9.59637Z" fill="#8401FF"/>
<path d="M63.3256 12.8522C63.3256 11.747 63.3256 10.6929 63.3256 9.64164C63.3027 9.0992 63.3226 8.55579 63.3854 8.01649C63.4873 7.31602 63.8356 6.67464 64.3679 6.20717C64.9002 5.73969 65.5818 5.47664 66.2906 5.46511C66.7716 5.41141 67.2586 5.45547 67.7222 5.59463C68.1858 5.73379 68.6164 5.96517 68.988 6.27485C69.1559 6.42259 69.2982 6.59874 69.4632 6.77489C69.631 6.57403 69.8115 6.38422 70.0038 6.20666C70.8831 5.48784 71.9074 5.3543 72.9916 5.51625C74.3972 5.73786 75.2679 6.54476 75.5325 7.89432C75.5768 8.1399 75.5968 8.38922 75.5923 8.63871C75.5923 9.90587 75.5923 11.1759 75.5923 12.4459C75.5923 12.7584 75.4984 12.855 75.1854 12.8408C74.6533 12.8152 74.1212 12.8408 73.5464 12.8408V12.443C73.5464 11.2753 73.5464 10.1076 73.5464 8.94271C73.5464 8.14434 73.1822 7.59884 72.559 7.39711C71.5005 7.05049 70.5672 7.64714 70.5132 8.75236C70.462 9.97406 70.4677 11.1986 70.4762 12.4203C70.4762 12.7669 70.3794 12.8692 70.0351 12.8493C69.5173 12.8181 68.9937 12.8493 68.4332 12.8493V12.4516C68.4332 11.2611 68.4332 10.0707 68.4332 8.88021C68.4332 7.60168 67.2068 6.99651 66.1141 7.49371C65.8941 7.5944 65.7086 7.75741 65.5806 7.96249C65.4527 8.16757 65.3878 8.40568 65.3942 8.64723C65.3572 9.89167 65.3601 11.1389 65.3487 12.3834C65.3487 12.8493 65.3487 12.8493 64.8906 12.8493L63.3256 12.8522Z" fill="#8401FF"/>
<path d="M38.7913 18.0345C40.1059 17.0372 41.4774 16.9605 42.8973 17.4378C44.2545 17.8953 44.9943 18.9067 45.2021 20.279C45.5748 22.748 43.97 24.3305 41.8843 24.6175C40.9608 24.7631 40.0159 24.6882 39.1271 24.3987C38.472 24.204 37.8949 23.8083 37.4776 23.2677C37.0604 22.7272 36.8241 22.0692 36.8023 21.3871C36.6999 20.1029 36.7397 18.8073 36.7227 17.5145C36.7227 16.7787 36.7227 16.0428 36.7227 15.3069C36.7227 15.0967 36.7938 15.0228 37.0072 15.0228C37.508 15.0228 38.0088 15.0228 38.5096 15.0228C38.7543 15.0228 38.8141 15.1137 38.8112 15.3439C38.8112 16.0911 38.8112 16.8412 38.8112 17.5884L38.7913 18.0345ZM40.988 22.8986C42.4562 22.8986 43.4322 21.7621 43.0936 20.441C43.0126 20.0841 42.8297 19.7584 42.5671 19.5033C42.3044 19.2481 41.9734 19.0745 41.614 19.0033C41.2202 18.8794 40.7991 18.8714 40.401 18.9803C40.0028 19.0891 39.6445 19.3102 39.3689 19.617C39.1028 19.8939 38.9286 20.2459 38.87 20.6252C38.8115 21.0044 38.8714 21.3925 39.0417 21.7365C39.4059 22.5662 40.1116 22.8872 40.988 22.8986Z" fill="#8401FF"/>
<path d="M52.6033 18.401V17.3384H54.615C54.615 17.4748 54.6292 17.6225 54.6292 17.739C54.6292 19.1596 54.6292 20.5518 54.6292 21.9553C54.6292 22.4781 54.7516 22.8844 55.3833 22.8332C55.4402 22.8332 55.5625 22.9639 55.5654 23.0378C55.5824 23.4668 55.5824 23.8902 55.5654 24.3277C55.5654 24.4044 55.4487 24.5351 55.3861 24.5351C54.9112 24.5499 54.4358 24.5319 53.9634 24.4811C53.6836 24.4415 53.4187 24.3312 53.1936 24.1606C52.9685 23.9901 52.7908 23.765 52.6773 23.5066C52.6488 23.4498 52.6118 23.3929 52.6147 23.3958C52.1793 23.7254 51.7923 24.1345 51.32 24.3561C50.8252 24.5908 50.2824 24.707 49.7348 24.6954C49.1871 24.6838 48.6497 24.5448 48.1654 24.2893C47.681 24.0338 47.2631 23.669 46.9448 23.2239C46.6265 22.7787 46.4166 22.2656 46.3319 21.7252C46.1966 21.0848 46.2216 20.4209 46.4048 19.7925C46.5879 19.164 46.9235 18.5905 47.3819 18.1226C48.5741 16.8781 51.283 16.7503 52.3984 18.222C52.4635 18.2852 52.5319 18.345 52.6033 18.401ZM50.1477 18.955C49.8459 18.9592 49.5494 19.0354 49.2831 19.1772C49.0168 19.3191 48.7884 19.5225 48.6168 19.7704C48.4012 20.0595 48.2714 20.4033 48.2422 20.7625C48.213 21.1217 48.2856 21.4819 48.4518 21.8019C48.8018 22.552 49.4619 22.873 50.2672 22.9213C50.5487 22.9518 50.8336 22.9233 51.1035 22.8376C51.3734 22.752 51.6225 22.6111 51.8348 22.424C52.0471 22.2368 52.218 22.0075 52.3366 21.7507C52.4552 21.4939 52.5189 21.2152 52.5236 20.9325C52.5407 19.779 51.559 18.884 50.1477 18.955Z" fill="#8401FF"/>
<path d="M68.65 20.7052C68.8349 20.5092 68.9516 20.3898 69.0597 20.2677C69.8678 19.3613 70.6646 18.4465 71.4869 17.5515C71.6259 17.4163 71.8084 17.3348 72.0019 17.3214C72.6621 17.2958 73.3194 17.3214 74.062 17.3214C73.7092 17.7305 73.399 18.097 73.0832 18.4578C72.46 19.1653 71.8426 19.8784 71.2052 20.5688C71.0145 20.7762 71.0259 20.9069 71.2052 21.1058C72.1726 22.157 73.1316 23.2196 74.0905 24.2794C74.1559 24.3533 74.2185 24.43 74.3238 24.5635C73.5299 24.5635 72.7986 24.5806 72.0674 24.5635C71.9222 24.5635 71.7629 24.3874 71.6462 24.2595C70.7395 23.2765 69.8365 22.2877 68.9374 21.2933C68.8715 21.2048 68.8152 21.1096 68.7695 21.0092L68.6329 21.0973C68.6329 21.2138 68.613 21.3331 68.613 21.4496C68.613 22.3787 68.613 23.3077 68.613 24.2396C68.613 24.501 68.5419 24.6005 68.2659 24.5863C67.8233 24.5607 67.3796 24.5607 66.937 24.5863C66.6212 24.6061 66.5586 24.4754 66.5586 24.1942C66.5586 22.086 66.5586 19.9779 66.5586 17.8669C66.5586 17.0514 66.5586 16.236 66.5586 15.4206C66.5586 15.1734 66.6297 15.074 66.8887 15.0853C67.3553 15.1024 67.822 15.1024 68.2886 15.0853C68.5504 15.0853 68.6102 15.1734 68.6102 15.4206C68.6102 17.0287 68.6102 18.6397 68.6102 20.2506C68.6102 20.3472 68.6329 20.4751 68.65 20.7052Z" fill="#8401FF"/>
<path d="M64.9617 24.5464H63.1776C62.9186 24.5464 62.9642 24.3589 62.9642 24.2112C62.9642 23.177 62.9642 22.1456 62.9642 21.1143C62.9608 20.8204 62.9245 20.5279 62.856 20.2421C62.7958 19.9981 62.6711 19.7747 62.4949 19.5953C62.3187 19.4159 62.0976 19.287 61.8545 19.2221C61.3653 19.058 60.8369 19.051 60.3435 19.2022C60.0065 19.3143 59.7142 19.5311 59.5094 19.821C59.3046 20.1108 59.1981 20.4585 59.2054 20.8131C59.2054 21.9496 59.1854 23.0577 59.2054 24.1799C59.2054 24.4925 59.1115 24.5692 58.8184 24.555C58.3403 24.5294 57.8623 24.555 57.3957 24.555C57.2079 24.555 57.1367 24.4981 57.1367 24.3021C57.1367 22.0576 57.1367 19.813 57.1367 17.5685C57.1367 17.3753 57.2107 17.3071 57.3957 17.31C57.9192 17.31 58.4428 17.31 58.9663 17.31C59.1598 17.31 59.2224 17.3924 59.2139 17.5941C59.2139 17.9265 59.2139 18.2561 59.2139 18.6879C59.3039 18.6218 59.3877 18.5476 59.4643 18.4663C59.7263 18.1103 60.0694 17.8216 60.4652 17.624C60.861 17.4264 61.2982 17.3256 61.7406 17.3298C62.3241 17.2915 62.9085 17.3887 63.4479 17.614C63.9029 17.8052 64.2915 18.126 64.5652 18.5362C64.839 18.9465 64.9857 19.4281 64.9873 19.921C65.0584 21.424 65.01 22.9355 65.01 24.4442C64.9961 24.4792 64.9799 24.5134 64.9617 24.5464Z" fill="#8401FF"/>
<path d="M48.4218 11.1219H48.7831C50.001 11.1219 51.216 11.1219 52.4338 11.1219C52.6956 11.1219 52.7952 11.1844 52.781 11.4628C52.7582 11.9117 52.781 12.3635 52.781 12.8323H45.582C45.582 12.2782 45.582 11.7384 45.582 11.1986C45.582 11.0991 45.7044 10.9883 45.7926 10.9145C47.0028 9.83103 48.2141 8.75138 49.4262 7.67552C49.5232 7.60087 49.6249 7.53253 49.7307 7.47096L49.6595 7.36299C49.5514 7.36299 49.4461 7.34879 49.338 7.34879C48.2454 7.34879 47.1556 7.34879 46.0629 7.34879C45.7784 7.34879 45.6902 7.25787 45.7072 6.98228C45.7271 6.6186 45.7072 6.25493 45.7072 5.8941C45.7072 5.69238 45.7641 5.60999 45.9775 5.60999C48.0642 5.60999 50.1452 5.60999 52.2204 5.60999C52.4253 5.60999 52.522 5.67249 52.505 5.8941C52.4993 5.92796 52.4993 5.96253 52.505 5.99639C52.6757 6.97091 52.3143 7.66132 51.5119 8.26933C50.5189 9.0194 49.6339 9.91153 48.7006 10.7383C48.5925 10.8349 48.473 10.923 48.3592 11.0224L48.4218 11.1219Z" fill="#8401FF"/>
<path d="M38.7922 5.60999V6.03332C38.7922 7.22093 38.7922 8.41139 38.7922 9.60184C38.7752 9.94137 38.8807 10.2757 39.0895 10.5442C39.2984 10.8127 39.5967 10.9975 39.9304 11.0651C40.8125 11.2583 41.5807 10.9997 41.871 10.3406C42.0063 10.0055 42.0758 9.64769 42.0759 9.28647C42.1015 8.20967 42.0759 7.13286 42.0759 6.05605C42.0759 5.62135 42.0758 5.61851 42.5311 5.61851C42.9864 5.61851 43.416 5.61851 43.8599 5.61851C44.0506 5.61851 44.1217 5.68386 44.1217 5.87422C44.1217 7.22378 44.1559 8.57618 44.0933 9.92006C44.025 11.4372 42.6705 12.7243 41.0999 12.9345C40.3092 13.0544 39.5007 12.95 38.7666 12.6334C37.4065 12.0339 36.7549 10.9514 36.7236 9.50808C36.6951 8.31763 36.7236 7.12718 36.7236 5.93672C36.7236 5.69806 36.7976 5.62419 37.0366 5.62987C37.5971 5.62135 38.1662 5.60999 38.7922 5.60999Z" fill="#8401FF"/>
<path d="M61.725 5.61002V6.26349C61.725 7.3403 61.7051 8.41711 61.725 9.49392C61.7705 11.3236 60.4758 12.6192 58.7145 12.9033C58.0314 13.0441 57.3225 12.9927 56.6669 12.755C56.0113 12.5172 55.4346 12.1023 55.0012 11.5566C54.5252 10.9251 54.2856 10.147 54.324 9.35754C54.3069 8.22107 54.324 7.06755 54.324 5.92255C54.324 5.66401 54.4094 5.59298 54.6569 5.6015C55.226 5.61571 55.7951 5.6015 56.3841 5.6015C56.3841 5.75776 56.4012 5.88562 56.4012 6.00211C56.4012 7.13858 56.4012 8.27505 56.4012 9.41152C56.4012 10.798 57.582 11.5396 58.8539 10.9571C59.0792 10.8568 59.2724 10.6963 59.412 10.4932C59.5516 10.2901 59.6322 10.0524 59.645 9.80645C59.6933 9.27799 59.6962 8.74385 59.7019 8.21254C59.7019 7.44258 59.7019 6.67262 59.7019 5.89982C59.7019 5.74072 59.7019 5.61571 59.9267 5.61571C60.5071 5.61571 61.0848 5.61002 61.725 5.61002Z" fill="#8401FF"/>
</g>
<defs>
<clipPath id="clip0_1283_5476">
<rect width="75" height="28.3465" fill="white" transform="translate(0.605469 0.919189)"/>
</clipPath>
</defs>
</svg>
