<svg width="11" height="13" viewBox="0 0 11 13" fill="none" xmlns="http://www.w3.org/2000/svg">
<path d="M9.99105 6.99149L1.28473 12.7957C1.22289 12.8369 1.15103 12.8605 1.07682 12.864C1.00262 12.8676 0.928836 12.8509 0.863341 12.8159C0.797845 12.7808 0.743087 12.7286 0.704899 12.6649C0.666711 12.6012 0.646523 12.5283 0.646484 12.454V0.845561C0.646523 0.771269 0.666711 0.698379 0.704899 0.634654C0.743087 0.570928 0.797845 0.518754 0.863341 0.483688C0.928836 0.448622 1.00262 0.431978 1.07682 0.435528C1.15103 0.439078 1.22289 0.462689 1.28473 0.503847L9.99105 6.30806C10.0473 6.34557 10.0934 6.39638 10.1253 6.45599C10.1572 6.5156 10.1739 6.58217 10.1739 6.64978C10.1739 6.71738 10.1572 6.78395 10.1253 6.84356C10.0934 6.90317 10.0473 6.95398 9.99105 6.99149Z" fill="white"/>
</svg>
